<mxfile host="app.diagrams.net" modified="2024-03-01T16:17:28.039Z" agent="Mozilla/5.0 (X11; Ubuntu; Linux x86_64; rv:123.0) Gecko/20100101 Firefox/123.0" version="24.0.0" etag="VQssoR6b8mcoa2JrELg8" type="github">
  <diagram name="PÃ¡gina-1" id="VJKq6KBY3h6oaKmfxk_u">
    <mxGraphModel>
      <root>
        <mxCell id="0" />
        <mxCell id="1" parent="0" />
      </root>
    </mxGraphModel>
  </diagram>
</mxfile>
